<svg xmlns="http://www.w3.org/2000/svg" viewBox="0 0 24 24">
  <defs>
    <filter id="shadow" x="-20%" y="-20%" width="140%" height="140%">
      <feGaussianBlur in="SourceAlpha" stdDeviation="5" result="blur" />
      <feOffset in="blur" dx="0" dy="0" result="offsetBlur" />
      <feFlood flood-color="#FFD700" result="offsetColor" />
      <feComposite in="offsetColor" in2="offsetBlur" operator="in" result="offsetBlur" />
      <feBlend in="SourceGraphic" in2="offsetBlur" mode="normal" />
    </filter>
  </defs>
  <g filter="url(#shadow)">
    <path fill="#FFD700" d="M19,19H5V8H19M19,3H18V1H16V3H8V1H6V3H5C3.89,3 3,3.9 3,5V19A2,2 0 0,0 5,21H19A2,2 0 0,0 21,19V5A2,2 0 0,0 19,3M16.53,11.06L15.47,10L10.59,14.88L8.47,12.76L7.41,13.82L10.59,17L16.53,11.06Z" />
  </g>
</svg>
