<svg xmlns="http://www.w3.org/2000/svg" viewBox="0 0 24 24">
  <defs>
    <filter id="shadow" x="-20%" y="-20%" width="140%" height="140%">
      <feGaussianBlur in="SourceAlpha" stdDeviation="5" result="blur" />
      <feOffset in="blur" dx="0" dy="0" result="offsetBlur" />
      <feFlood flood-color="#FFD700" result="offsetColor" />
      <feComposite in="offsetColor" in2="offsetBlur" operator="in" result="offsetBlur" />
      <feBlend in="SourceGraphic" in2="offsetBlur" mode="normal" />
    </filter>
  </defs>
  <g filter="url(#shadow)">
    <path fill="#FFD700" d="M12,17A2,2 0 0,0 14,15C14,13.89 13.1,13 12,13A2,2 0 0,0 10,15A2,2 0 0,0 12,17M18,8A2,2 0 0,1 20,10V20A2,2 0 0,1 18,22H6A2,2 0 0,1 4,20V10C4,8.89 4.9,8 6,8H7V6A5,5 0 0,1 12,1A5,5 0 0,1 17,6V8H18M12,3A3,3 0 0,0 9,6V8H15V6A3,3 0 0,0 12,3Z" />
  </g>
</svg>
